HIERARCHY
ROOT Hips
{
	OFFSET 0.000000 0.000000 0.000000 
	CHANNELS 6 Xposition Yposition Zposition Zrotation Yrotation Xrotation
	JOINT LeftUpLeg
	{
		OFFSET 1.363060 -1.794630 0.839290 
		CHANNELS 3 Zrotation Yrotation Xrotation
		JOINT LeftLeg
		{
			OFFSET 2.448110 -6.726130 0.000000 
			CHANNELS 3 Zrotation Yrotation Xrotation
			JOINT LeftFoot
			{
				OFFSET 2.562200 -7.039590 0.000000 
				CHANNELS 3 Zrotation Yrotation Xrotation
				JOINT LeftToeBase
				{
					OFFSET 0.157640 -0.433110 2.322550 
					CHANNELS 3 Zrotation Yrotation Xrotation
					End Site
					{
						OFFSET 0.000000 0.000000 0.000000 
					}
				}
			}
		}
	}
	JOINT RightUpLeg
	{
		OFFSET -1.305520 -1.794630 0.839290 
		CHANNELS 3 Zrotation Yrotation Xrotation
		JOINT RightLeg
		{
			OFFSET -2.542530 -6.985550 0.000000 
			CHANNELS 3 Zrotation Yrotation Xrotation
			JOINT RightFoot
			{
				OFFSET -2.568260 -7.056230 0.000000 
				CHANNELS 3 Zrotation Yrotation Xrotation
				JOINT RightToeBase
				{
					OFFSET -0.164730 -0.452590 2.363150 
					CHANNELS 3 Zrotation Yrotation Xrotation
					End Site
					{
						OFFSET 0.000000 0.000000 0.000000 
					}
				}
			}
		}
	}
	JOINT Spine
	{
		OFFSET 0.028270 2.035590 -0.193380 
		CHANNELS 3 Zrotation Yrotation Xrotation
		JOINT Spine1
		{
			OFFSET 0.056720 2.048850 -0.042750 
			CHANNELS 3 Zrotation Yrotation Xrotation
			JOINT Neck1
			{
				OFFSET -0.054170 1.746240 0.172020 
				CHANNELS 3 Zrotation Yrotation Xrotation
				JOINT Head
				{
					OFFSET 0.104070 1.761360 -0.123970 
					CHANNELS 3 Zrotation Yrotation Xrotation
					End Site
					{
						OFFSET 0.000000 0.000000 0.000000 
					}
				}
			}
			JOINT LeftArm
			{
				OFFSET 3.362410 1.200890 -0.311210 
				CHANNELS 3 Zrotation Yrotation Xrotation
				JOINT LeftForeArm
				{
					OFFSET 4.983000 -0.000000 -0.000000 
					CHANNELS 3 Zrotation Yrotation Xrotation
					JOINT LeftHand
					{
						OFFSET 3.483560 -0.000000 -0.000000 
						CHANNELS 3 Zrotation Yrotation Xrotation
						JOINT LeftHandIndex1
						{
							OFFSET 0.715260 -0.000000 -0.000000 
							CHANNELS 3 Zrotation Yrotation Xrotation
							End Site
							{
								OFFSET 0.000000 0.000000 0.000000 
							}
						}
					}
				}
			}
			JOINT RightArm
			{
				OFFSET -3.136600 1.374050 -0.404650 
				CHANNELS 3 Zrotation Yrotation Xrotation
				JOINT RightForeArm
				{
					OFFSET -5.241900 -0.000000 -0.000000 
					CHANNELS 3 Zrotation Yrotation Xrotation
					JOINT RightHand
					{
						OFFSET -3.444170 -0.000000 -0.000000 
						CHANNELS 3 Zrotation Yrotation Xrotation
						JOINT RightHandIndex1
						{
							OFFSET -0.622530 -0.000000 -0.000000 
							CHANNELS 3 Zrotation Yrotation Xrotation
							End Site
							{
								OFFSET 0.000000 0.000000 0.000000 
							}
						}
					}
				}
			}
		}
	}
}
MOTION
Frames: 12
Frame Time: 0.041667
2.157282 15.434649 8.627340 -4.391728 -2.904450 62.848195 -10.388740 4.281126 -44.907466 17.464055 22.276398 82.420834 4.486153 -12.700721 29.415402 0.001900 0.279700 0.768400 10.317987 -0.246097 -41.161522 -12.756045 -21.690897 66.762947 -4.447089 8.047984 50.461394 -0.166200 -2.626200 7.239600 2.258784 4.551476 -4.569495 19.216964 3.138439 -2.287833 6.452412 -4.051622 3.269852 1.905200 -2.440900 6.383000 -38.603125 -47.362334 33.739597 36.958950 -31.814846 -17.546985 -2.562116 2.399861 -29.127864 -7.125000 0.000000 0.000000 14.670792 31.679374 8.372876 -33.629972 32.609728 -17.820507 -0.795685 0.588270 -11.559161 7.125000 0.000000 0.000000 
2.156805 15.459665 8.693932 -4.380811 -2.934509 62.682413 -10.282103 4.571440 -44.918047 17.869481 22.233450 83.835285 4.689850 -13.598445 28.341720 0.000000 0.031800 0.087300 10.415784 -0.578242 -41.686547 -13.336880 -21.856145 68.615019 -4.365870 8.419712 49.615450 -0.159900 -2.576500 7.101700 2.244620 4.650701 -4.586561 19.183948 3.196361 -2.354626 6.452074 -4.020697 2.979794 1.938100 -2.416400 6.225600 -40.710659 -47.133977 34.565995 38.766353 -33.167536 -18.774654 -2.221254 2.310097 -29.436366 -7.125000 0.000000 0.000000 15.878532 31.001688 9.709909 -35.064284 33.718378 -19.139378 -0.986624 0.636096 -12.249109 7.125000 0.000000 0.000000 
2.156567 15.484682 8.759810 -4.368805 -2.960550 62.533233 -10.140069 4.876452 -44.923427 18.285826 22.181883 85.270352 4.915814 -14.592673 27.232338 0.001900 -0.281600 -0.773700 10.496587 -0.925717 -42.207290 -13.915261 -22.001695 70.485263 -4.307155 8.881093 48.845333 -0.155500 -2.541100 7.003600 2.232002 4.756916 -4.601912 19.159682 3.256659 -2.420352 6.456599 -3.997506 2.693006 1.964600 -2.394500 6.068700 -42.846218 -46.848041 35.415685 40.659090 -34.546234 -20.091443 -1.901956 2.195166 -29.735397 -7.125000 0.000000 0.000000 16.932650 30.247947 11.035274 -36.559489 34.835858 -20.556353 -1.155949 0.690357 -12.824155 7.125000 0.000000 0.000000 
2.156805 15.509818 8.825330 -4.356120 -2.959062 62.408336 -9.944089 5.186577 -44.927068 18.718223 22.122552 86.727176 5.156292 -15.668328 26.095613 0.009700 -0.636800 -1.749900 10.580236 -1.302878 -42.731759 -14.482087 -22.124226 72.373954 -4.270148 9.460866 48.114021 -0.144000 -2.445900 6.739600 2.221884 4.852940 -4.615939 19.146850 3.311037 -2.481863 6.472170 -3.988513 2.404856 2.001300 -2.376700 5.905000 -44.971764 -46.472225 36.273363 42.640916 -35.947478 -21.508983 -1.599053 2.058187 -30.061520 -7.125000 0.000000 0.000000 17.915092 29.453927 12.335150 -38.153031 35.973506 -22.101156 -1.299667 0.749806 -13.284873 7.125000 0.000000 0.000000 
2.157163 15.535073 8.891327 -4.349030 -2.936824 62.309991 -9.694874 5.506297 -44.921754 19.167634 22.053782 88.196811 5.398538 -16.787545 24.949666 0.024000 -1.000200 -2.749400 10.660880 -1.695650 -43.253016 -15.032970 -22.224927 74.280901 -4.253949 10.175159 47.385752 -0.122000 -2.251900 6.202300 2.213910 4.937849 -4.628759 19.156226 3.359435 -2.540647 6.499502 -3.994501 2.114606 2.052600 -2.363300 5.733100 -47.049915 -45.984669 37.140079 44.735903 -37.368275 -23.055560 -1.308291 1.905394 -30.458161 -7.125000 0.000000 0.000000 18.899922 28.631834 13.584350 -39.913424 37.156985 -23.838638 -1.418365 0.823259 -13.746321 7.125000 0.000000 0.000000 
2.157639 15.560686 8.958157 -4.345837 -2.884124 62.242956 -9.383705 5.824186 -44.903149 19.633493 21.975655 89.671888 5.628211 -17.911863 23.826605 0.042400 -1.328400 -3.652800 10.744295 -2.110613 -43.774408 -15.567109 -22.303022 76.210019 -4.257567 11.031187 46.627377 -0.088400 -1.918000 5.279200 2.208476 4.999241 -4.641750 19.183170 3.396736 -2.598577 6.535018 -4.013229 1.828388 2.117700 -2.353800 5.559100 -49.029586 -45.362010 38.013882 46.973456 -38.800730 -24.760458 -1.020919 1.740131 -30.971891 -7.125000 0.000000 0.000000 19.962820 27.785858 14.797200 -41.866778 38.388179 -25.797500 -1.503060 0.885159 -14.271310 7.125000 0.000000 0.000000 
2.157877 15.586536 9.026298 -4.350215 -2.811083 62.206740 -9.017705 6.143634 -44.870765 20.113233 21.886981 91.143393 5.831047 -18.987660 22.746379 0.061200 -1.596800 -4.392600 10.822068 -2.542100 -44.290602 -16.091472 -22.359800 78.165796 -4.279287 12.009031 45.835671 -0.052300 -1.476300 4.060500 2.204818 5.034887 -4.655384 19.219210 3.420705 -2.653123 6.572702 -4.037547 1.553708 2.187400 -2.346100 5.393800 -50.855112 -44.590961 38.910936 49.384965 -40.235570 -26.661358 -0.741145 1.569501 -31.532912 -7.125000 0.000000 0.000000 21.135069 26.918282 15.971246 -44.069464 39.677549 -28.037631 -1.555870 0.938926 -15.049346 7.125000 0.000000 0.000000 
2.157520 15.612387 9.095512 -4.358726 -2.716989 62.201354 -8.598502 6.471580 -44.823392 20.603862 21.786474 92.605450 6.000681 -19.984485 21.718608 0.077200 -1.792600 -4.932800 10.891669 -2.993973 -44.804208 -16.618033 -22.396013 80.157714 -4.315406 13.070427 45.024887 -0.022100 -0.959400 2.637100 2.202310 5.040434 -4.669779 19.252668 3.428275 -2.702011 6.610169 -4.062111 1.292786 2.261100 -2.337800 5.239300 -52.467391 -43.684890 39.819148 52.004111 -41.643978 -28.782868 -0.465674 1.388893 -32.101963 -7.125000 0.000000 0.000000 22.433695 26.026188 17.099197 -46.578741 41.031191 -30.626747 -1.574908 0.979712 -16.187725 7.125000 0.000000 0.000000 
2.156448 15.638357 9.165916 -4.367023 -2.620847 62.220557 -8.144515 6.814737 -44.763910 21.102319 21.672951 94.054659 6.135554 -20.874119 20.727780 0.088400 -1.918000 -5.279000 10.932384 -3.464702 -45.308612 -17.160993 -22.411383 82.192731 -4.360095 14.157923 44.225658 -0.004600 -0.435900 1.197600 2.200337 5.017484 -4.685186 19.273639 3.417224 -2.736510 6.635266 -4.069337 1.062761 2.316900 -2.324300 5.121000 -53.836345 -42.667186 40.724879 54.855235 -42.997906 -31.150052 -0.193046 1.194903 -32.618129 -7.125000 0.000000 0.000000 23.841243 25.115036 18.173816 -49.426653 42.436350 -33.605669 -1.558594 1.002515 -17.703327 7.125000 0.000000 0.000000 
2.154423 15.664684 9.237869 -4.371445 -2.530888 62.252586 -7.663227 7.167711 -44.677312 21.599421 21.547348 95.477887 6.232804 -21.635288 19.804862 0.094100 -1.977900 -5.444600 10.929256 -3.961549 -45.789028 -17.726173 -22.402979 84.274847 -4.409490 15.244152 43.452787 -0.000100 0.074000 -0.203300 2.197689 4.969010 -4.701504 19.275058 3.393013 -2.772213 6.653219 -4.062649 0.854334 2.367800 -2.305400 5.022200 -54.973353 -41.569973 41.617651 57.939699 -44.270287 -33.775040 0.073315 0.985634 -33.034938 -7.125000 0.000000 0.000000 25.330360 24.180833 19.186449 -52.619137 43.874604 -36.993474 -1.506622 0.999306 -19.492982 7.125000 0.000000 0.000000 
2.151921 15.691249 9.310656 -4.365279 -2.451117 62.303701 -7.163164 7.522724 -44.571332 22.092401 21.411020 96.876382 6.298729 -22.285165 18.937325 0.094200 -1.979800 -5.449800 10.870659 -4.498131 -46.256926 -18.319168 -22.368331 86.410486 -4.459376 16.306098 42.711494 -0.007600 0.561900 -1.543900 2.194552 4.896972 -4.718934 19.258728 3.359444 -2.808050 6.663824 -4.038494 0.668092 2.415000 -2.279400 4.940700 -55.905340 -40.431512 42.485033 61.249888 -45.438665 -36.662388 0.327315 0.759795 -33.345945 -7.125000 0.000000 0.000000 26.853780 23.225170 20.112437 -56.140268 45.326184 -40.779075 -1.417928 0.966164 -21.396703 7.125000 0.000000 0.000000 
2.149538 15.717696 9.384039 -4.345408 -2.366912 62.374323 -6.643986 7.857221 -44.445276 22.577121 21.264741 98.250233 6.338320 -22.855991 18.131232 0.088400 -1.917900 -5.278900 10.749757 -5.094519 -46.717680 -18.941379 -22.303657 88.602092 -4.507447 17.334914 41.999009 -0.024700 1.014100 -2.787600 2.181117 4.771164 -4.740726 19.070252 3.303862 -2.864235 6.676692 -4.007785 0.499427 2.466300 -2.244300 4.863700 -56.523962 -39.183826 43.259966 64.745136 -46.487616 -39.817013 0.567403 0.507847 -33.604544 -7.125000 0.000000 0.000000 28.501320 22.306225 20.962734 -59.948082 46.771167 -44.893410 -1.300679 0.901420 -23.231674 7.125000 0.000000 0.000000 
